{"title":"Cell 2016 Movies BRRip XviD ESubs AAC New Source +Sample ~ ☻rDX☻","uid":15542963,"size":738419520,"categoryP":"video","categoryS":"movies","magnet":"?xt=urn:btih:9f6079983af25621c6c5e25d885bfd9a2de24441&amp;dn=Cell+2016+Movies+BRRip+XviD+ESubs+AAC+New+Source+%2BSample+%7E+%E2%98%BBrDX%E2%98%BB&amp;tr=udp%3A%2F%2Ftracker.leechers-paradise.org%3A6969&amp;tr=udp%3A%2F%2Fzer0day.ch%3A1337&amp;tr=udp%3A%2F%2Fopen.demonii.com%3A1337&amp;tr=udp%3A%2F%2Ftracker.coppersurfer.tk%3A6969&amp;tr=udp%3A%2F%2Fexodus.desync.com%3A6969","seeders":4,"leechers":0,"uploader":"basicssom","files":3,"time":1470938098,"description":"----------------------------------------------------------------\r\nCell 2016 English Movies BRRip XviD ESubs AAC New Source with Sample ☻rDX☻\r\n\r\nSCREEN SHOTS &amp; POSTER:\r\n  \nhttp://postimage.co.nr/2016/8/broadband/index.htm  \nhttp://postimage.co.nr/2016/8/broadband/1.html  \nhttp://postimage.co.nr/2016/8/broadband/2.html  \nhttp://postimage.co.nr/2016/8/broadband/3.html  \nhttp://postimage.co.nr/2016/8/broadband/4.html  \nhttp://postimage.co.nr/2016/8/broadband/5.html  \nhttp://postimage.co.nr/2016/8/broadband/6.html  \nhttp://postimage.co.nr/2016/8/broadband/7.html  \nhttp://postimage.co.nr/2016/8/broadband/8.html  \nhttp://postimage.co.nr/2016/8/broadband/9.html  \nhttp://postimage.co.nr/2016/8/broadband/10.html\r\n\r\nFormat                                   : Matroska\r\nFormat version                           : Version 4 / Version 2\r\nFile size                                : 692 MiB\r\nDuration                                 : 1 h 36 min\r\nOverall bit rate                         : 1 002 kb/s\r\nMovie name                               : Cell 2016 English Movies BRRip XviD ESubs AAC New Source ☻rDX☻\r\n\r\nVideo\r\nID                                       : 1\r\nFormat                                   : MPEG-4 Visual\r\nFormat profile                           : Advanced   \r\nFormat settings, BVOP                    : 2\r\nFormat settings, QPel                    : No\r\nFormat settings, GMC                     : No warppoints\r\nFormat settings, Matrix                  : Default (H.263)\r\nMuxing mode                              : Packed bitstream\r\nCodec ID                                 : V_MS/VFW/FOURCC / XVID\r\nCodec ID/Hint                            : XviD\r\nDuration                                 : 1 h 36 min\r\nBit rate                                 : 854 kb/s\r\nWidth                                    : 640 pixels\r\nHeight                                   : 272 pixels\r\nDisplay aspect ratio                     : 2.35:1\r\nFrame rate mode                          : Constant\r\nFrame rate                               : 23.976 (24000/1001) FPS\r\nColor space                              : YUV\r\nChroma subsampling                       : 4:2:0\r\nBit depth                                : 8 bits\r\nScan type                                : Progressive\r\nCompression mode                         : Lossy\r\nBits/(Pixel*Frame)                       : 0.205\r\nStream size                              : 590 MiB (85%)\r\nTitle                                    : ☻rDX☻\r\nWriting library                          : XviD 64\r\nDefault                                  : Yes\r\nForced                                   : No\r\n\r\nAudio\r\nID                                       : 2\r\nFormat                                   : MPEG Audio\r\nFormat version                           : Version 1\r\nFormat profile                           : Layer 3\r\nMode                                     : Joint stereo\r\nMode extension                           : MS Stereo\r\nCodec ID                                 : A_MPEG/L3\r\nCodec ID/Hint                            : MP3\r\nDuration                                 : 1 h 36 min\r\nBit rate mode                            : Constant\r\nBit rate                                 : 128 kb/s\r\nChannel(s)                               : 2 channels\r\nSampling rate                            : 48.0 kHz\r\nCompression mode                         : Lossy\r\nStream size                              : 88.4 MiB (13%)\r\nTitle                                    : ☻rDX☻\r\nWriting library                          : LAME3.98\r\nDefault                                  : Yes\r\nForced                                   : No\r\n\r\nIMDB \nhttp://www.imdb.com/title/tt0775440/","torrent":{"xt":"urn:btih:9f6079983af25621c6c5e25d885bfd9a2de24441","amp;dn":"Cell+2016+Movies+BRRip+XviD+ESubs+AAC+New+Source+%2BSample+%7E+%E2%98%BBrDX%E2%98%BB","amp;tr":["udp%3A%2F%2Ftracker.leechers-paradise.org%3A6969","udp%3A%2F%2Fzer0day.ch%3A1337","udp%3A%2F%2Fopen.demonii.com%3A1337","udp%3A%2F%2Ftracker.coppersurfer.tk%3A6969","udp%3A%2F%2Fexodus.desync.com%3A6969"],"infoHash":"9f6079983af25621c6c5e25d885bfd9a2de24441","infoHashBuffer":{"type":"Buffer","data":[159,96,121,152,58,242,86,33,198,197,226,93,136,91,253,154,45,226,68,65]},"announce":[],"urlList":[]}}